<mxfile host="app.diagrams.net" modified="2023-06-03T16:12:35.915Z" agent="Mozilla/5.0 (Windows NT 10.0; Win64; x64) AppleWebKit/537.36 (KHTML, like Gecko) Chrome/114.0.0.0 Safari/537.36" etag="0dIEBRD547kPJlIbyhCg" version="21.3.7" type="device">
  <diagram name="Page-1" id="099fd60b-425b-db50-ffb0-6b813814b670">
    <mxGraphModel dx="946" dy="686" grid="1" gridSize="10" guides="1" tooltips="1" connect="1" arrows="1" fold="1" page="1" pageScale="1" pageWidth="850" pageHeight="1100" background="none" math="0" shadow="0">
      <root>
        <mxCell id="0" />
        <mxCell id="1" parent="0" />
        <mxCell id="NbCSgKlwapZDXcgRg8MS-1" value="" style="shape=datastore;whiteSpace=wrap;html=1;" vertex="1" parent="1">
          <mxGeometry x="400" y="930" width="60" height="60" as="geometry" />
        </mxCell>
        <mxCell id="NbCSgKlwapZDXcgRg8MS-6" value="&lt;b&gt;Persistencia / Acceso a datos /Data Layer&lt;/b&gt;&lt;br&gt;&lt;br&gt;Repositorios - repository pattern&lt;br&gt;&lt;br&gt;Entity Framework" style="shape=ext;double=1;rounded=1;whiteSpace=wrap;html=1;" vertex="1" parent="1">
          <mxGeometry x="285" y="780" width="280" height="90" as="geometry" />
        </mxCell>
        <mxCell id="NbCSgKlwapZDXcgRg8MS-7" value="CRUD&lt;br&gt;Create&lt;br&gt;Read&lt;br&gt;Update&lt;br&gt;Delete" style="shape=ext;double=1;rounded=1;whiteSpace=wrap;html=1;" vertex="1" parent="1">
          <mxGeometry x="60" y="790" width="120" height="80" as="geometry" />
        </mxCell>
        <mxCell id="NbCSgKlwapZDXcgRg8MS-9" value="&lt;b&gt;Negocios / Business Layer&lt;/b&gt;&lt;br&gt;Servicio Dominio&lt;br&gt;Servico Validaciones&lt;br&gt;Logica de negocio&lt;br&gt;Extensions&amp;nbsp; - Mapeadores" style="shape=ext;double=1;rounded=1;whiteSpace=wrap;html=1;" vertex="1" parent="1">
          <mxGeometry x="285" y="660" width="280" height="90" as="geometry" />
        </mxCell>
        <mxCell id="NbCSgKlwapZDXcgRg8MS-11" value="&lt;b&gt;User Interface&lt;br&gt;&lt;br&gt;&lt;br&gt;Web - Mobile - API&lt;br&gt;&lt;/b&gt;" style="shape=ext;double=1;rounded=1;whiteSpace=wrap;html=1;" vertex="1" parent="1">
          <mxGeometry x="280" y="530" width="280" height="90" as="geometry" />
        </mxCell>
        <mxCell id="NbCSgKlwapZDXcgRg8MS-12" value="Transferencia de objetos&lt;br&gt;&lt;br&gt;DTO&lt;br&gt;&lt;br&gt;Data transfer object" style="shape=ext;double=1;rounded=1;whiteSpace=wrap;html=1;" vertex="1" parent="1">
          <mxGeometry x="620" y="530" width="120" height="350" as="geometry" />
        </mxCell>
        <mxCell id="NbCSgKlwapZDXcgRg8MS-15" value="" style="endArrow=classic;html=1;rounded=0;" edge="1" parent="1">
          <mxGeometry width="50" height="50" relative="1" as="geometry">
            <mxPoint x="330" y="620" as="sourcePoint" />
            <mxPoint x="330" y="660" as="targetPoint" />
          </mxGeometry>
        </mxCell>
        <mxCell id="NbCSgKlwapZDXcgRg8MS-16" value="" style="endArrow=classic;html=1;rounded=0;entryX=0.182;entryY=0.028;entryDx=0;entryDy=0;entryPerimeter=0;" edge="1" parent="1" target="NbCSgKlwapZDXcgRg8MS-6">
          <mxGeometry width="50" height="50" relative="1" as="geometry">
            <mxPoint x="336" y="750" as="sourcePoint" />
            <mxPoint x="340" y="670" as="targetPoint" />
          </mxGeometry>
        </mxCell>
        <mxCell id="NbCSgKlwapZDXcgRg8MS-17" value="" style="endArrow=classic;html=1;rounded=0;entryX=0.15;entryY=0.05;entryDx=0;entryDy=0;entryPerimeter=0;exitX=0.25;exitY=1;exitDx=0;exitDy=0;" edge="1" parent="1" source="NbCSgKlwapZDXcgRg8MS-6" target="NbCSgKlwapZDXcgRg8MS-1">
          <mxGeometry width="50" height="50" relative="1" as="geometry">
            <mxPoint x="346" y="760" as="sourcePoint" />
            <mxPoint x="340" y="790" as="targetPoint" />
          </mxGeometry>
        </mxCell>
        <mxCell id="NbCSgKlwapZDXcgRg8MS-18" value="" style="endArrow=classic;html=1;rounded=0;exitX=0.683;exitY=0.008;exitDx=0;exitDy=0;exitPerimeter=0;entryX=0.661;entryY=1.017;entryDx=0;entryDy=0;entryPerimeter=0;" edge="1" parent="1" source="NbCSgKlwapZDXcgRg8MS-1" target="NbCSgKlwapZDXcgRg8MS-6">
          <mxGeometry width="50" height="50" relative="1" as="geometry">
            <mxPoint x="346" y="760" as="sourcePoint" />
            <mxPoint x="560" y="950" as="targetPoint" />
          </mxGeometry>
        </mxCell>
        <mxCell id="NbCSgKlwapZDXcgRg8MS-19" value="" style="endArrow=classic;html=1;rounded=0;entryX=0.696;entryY=0.994;entryDx=0;entryDy=0;entryPerimeter=0;" edge="1" parent="1" target="NbCSgKlwapZDXcgRg8MS-9">
          <mxGeometry width="50" height="50" relative="1" as="geometry">
            <mxPoint x="480" y="790" as="sourcePoint" />
            <mxPoint x="480" y="882" as="targetPoint" />
          </mxGeometry>
        </mxCell>
        <mxCell id="NbCSgKlwapZDXcgRg8MS-20" value="" style="endArrow=classic;html=1;rounded=0;" edge="1" parent="1" target="NbCSgKlwapZDXcgRg8MS-11">
          <mxGeometry width="50" height="50" relative="1" as="geometry">
            <mxPoint x="450" y="660" as="sourcePoint" />
            <mxPoint x="490" y="759" as="targetPoint" />
          </mxGeometry>
        </mxCell>
        <mxCell id="NbCSgKlwapZDXcgRg8MS-22" value="Diagrama de arquitectura" style="rounded=1;whiteSpace=wrap;html=1;fontStyle=1" vertex="1" parent="1">
          <mxGeometry x="40" y="420" width="690" height="60" as="geometry" />
        </mxCell>
      </root>
    </mxGraphModel>
  </diagram>
</mxfile>
